<svg xmlns="http://www.w3.org/2000/svg" xmlns:xlink="http://www.w3.org/1999/xlink" width="500" zoomAndPan="magnify" viewBox="0 0 375 374.999991" height="500" preserveAspectRatio="xMidYMid meet" version="1.0"><defs><clipPath id="b0e9f9b02a"><path d="M 131.683594 108.980469 L 243.433594 108.980469 L 243.433594 246.230469 L 131.683594 246.230469 Z M 131.683594 108.980469 " clip-rule="nonzero"/></clipPath></defs><g clip-path="url(#b0e9f9b02a)"><path fill="#000000" d="M 145.570312 161.8125 C 153.265625 161.8125 159.625 155.664062 159.625 148.019531 C 159.625 140.378906 153.265625 134.0625 145.570312 134.0625 C 137.878906 134.0625 131.6875 140.378906 131.6875 148.019531 C 131.6875 155.664062 137.878906 161.8125 145.570312 161.8125 Z M 229.546875 161.8125 C 237.242188 161.8125 243.433594 155.664062 243.433594 148.019531 C 243.433594 140.378906 237.242188 134.0625 229.546875 134.0625 C 221.855469 134.0625 215.667969 140.378906 215.667969 148.019531 C 215.667969 155.664062 221.855469 161.8125 229.546875 161.8125 Z M 229.546875 155 C 233.5625 155 236.574219 151.84375 236.574219 148.019531 C 236.574219 144.199219 233.5625 141.039062 229.546875 141.039062 C 225.703125 141.039062 222.523438 144.199219 222.523438 148.019531 C 222.523438 151.84375 225.703125 155 229.546875 155 Z M 187.5625 136.726562 C 195.425781 136.726562 201.613281 130.40625 201.613281 122.765625 C 201.613281 115.285156 195.425781 108.980469 187.5625 108.980469 C 179.863281 108.980469 173.675781 115.285156 173.675781 122.765625 C 173.675781 130.40625 179.863281 136.726562 187.5625 136.726562 Z M 187.5625 129.746094 C 191.578125 129.746094 194.753906 126.75 194.753906 122.765625 C 194.753906 118.941406 191.578125 115.789062 187.5625 115.789062 C 183.714844 115.789062 180.539062 118.941406 180.539062 122.765625 C 180.539062 126.75 183.714844 129.746094 187.5625 129.746094 Z M 138.714844 191.550781 L 138.714844 182.25 C 138.714844 178.429688 141.890625 175.269531 145.742188 175.269531 C 149.585938 175.269531 152.597656 178.429688 152.597656 182.25 L 152.597656 193.878906 L 159.625 193.878906 L 159.625 182.25 C 159.625 174.605469 153.265625 168.457031 145.742188 168.457031 C 138.046875 168.457031 131.6875 174.605469 131.6875 182.25 L 131.6875 194.875 C 131.6875 200.695312 136.371094 205.34375 142.226562 205.34375 L 152.597656 205.34375 L 152.597656 232.425781 C 152.597656 239.90625 158.953125 246.21875 166.65625 246.21875 C 174.34375 246.21875 180.539062 239.90625 180.539062 232.425781 L 180.539062 209.832031 L 173.675781 209.832031 L 173.675781 232.425781 C 173.675781 236.078125 170.5 239.238281 166.65625 239.238281 C 162.804688 239.238281 159.625 236.078125 159.625 232.425781 L 159.625 205.34375 L 194.589844 205.34375 L 194.589844 232.425781 C 194.589844 239.90625 200.945312 246.21875 208.640625 246.21875 C 216.164062 246.21875 222.523438 239.90625 222.523438 232.425781 L 222.523438 209.832031 L 215.496094 209.832031 L 215.496094 232.425781 C 215.496094 236.078125 212.484375 239.238281 208.640625 239.238281 C 204.792969 239.238281 201.613281 236.078125 201.613281 232.425781 L 201.613281 205.34375 L 233.0625 205.34375 C 238.753906 205.34375 243.433594 200.695312 243.433594 194.875 L 243.433594 182.25 C 243.433594 174.605469 237.242188 168.457031 229.546875 168.457031 C 221.855469 168.457031 215.496094 174.605469 215.496094 182.25 L 215.496094 198.367188 L 180.539062 198.367188 L 180.539062 191.222656 L 180.539062 191.550781 L 180.539062 157.164062 C 180.539062 153.335938 183.714844 150.183594 187.5625 150.183594 C 191.578125 150.183594 194.589844 153.335938 194.589844 157.164062 L 194.589844 191.550781 L 194.589844 191.222656 L 194.589844 193.878906 L 201.613281 193.878906 L 201.613281 191.222656 L 201.613281 191.550781 L 201.613281 157.164062 C 201.613281 149.515625 195.257812 143.203125 187.5625 143.203125 C 179.863281 143.203125 173.675781 149.515625 173.675781 157.164062 L 173.675781 191.550781 L 173.675781 191.222656 L 173.675781 198.367188 L 142.226562 198.367188 C 140.222656 198.367188 138.714844 196.703125 138.714844 194.875 Z M 222.523438 198.367188 L 222.523438 182.25 C 222.523438 178.429688 225.703125 175.269531 229.546875 175.269531 C 233.398438 175.269531 236.574219 178.429688 236.574219 182.25 L 236.574219 194.875 C 236.574219 196.703125 234.902344 198.367188 233.0625 198.367188 Z M 145.570312 155 C 149.585938 155 152.597656 151.84375 152.597656 148.019531 C 152.597656 144.199219 149.585938 141.039062 145.570312 141.039062 C 141.726562 141.039062 138.546875 144.199219 138.546875 148.019531 C 138.546875 151.84375 141.726562 155 145.570312 155 Z M 145.570312 155 " fill-opacity="1" fill-rule="evenodd"/></g></svg>