<svg xmlns="http://www.w3.org/2000/svg" xmlns:xlink="http://www.w3.org/1999/xlink" width="500" zoomAndPan="magnify" viewBox="0 0 375 374.999991" height="500" preserveAspectRatio="xMidYMid meet" version="1.0"><defs><clipPath id="999c979813"><path d="M 131.683594 108.980469 L 243.433594 108.980469 L 243.433594 246.230469 L 131.683594 246.230469 Z M 131.683594 108.980469 " clip-rule="nonzero"/></clipPath></defs><g clip-path="url(#999c979813)"><path fill="#ffffff" d="M 145.554688 161.949219 C 153.242188 161.949219 159.59375 155.785156 159.59375 148.121094 C 159.59375 140.460938 153.242188 134.125 145.554688 134.125 C 137.871094 134.125 131.6875 140.460938 131.6875 148.121094 C 131.6875 155.785156 137.871094 161.949219 145.554688 161.949219 Z M 229.433594 161.949219 C 237.121094 161.949219 243.304688 155.785156 243.304688 148.121094 C 243.304688 140.460938 237.121094 134.125 229.433594 134.125 C 221.753906 134.125 215.570312 140.460938 215.570312 148.121094 C 215.570312 155.785156 221.753906 161.949219 229.433594 161.949219 Z M 229.433594 155.117188 C 233.445312 155.117188 236.453125 151.953125 236.453125 148.121094 C 236.453125 144.289062 233.445312 141.121094 229.433594 141.121094 C 225.59375 141.121094 222.417969 144.289062 222.417969 148.121094 C 222.417969 151.953125 225.59375 155.117188 229.433594 155.117188 Z M 187.496094 136.796875 C 195.351562 136.796875 201.53125 130.460938 201.53125 122.800781 C 201.53125 115.304688 195.351562 108.980469 187.496094 108.980469 C 179.808594 108.980469 173.628906 115.304688 173.628906 122.800781 C 173.628906 130.460938 179.808594 136.796875 187.496094 136.796875 Z M 187.496094 129.800781 C 191.507812 129.800781 194.683594 126.796875 194.683594 122.800781 C 194.683594 118.96875 191.507812 115.804688 187.496094 115.804688 C 183.65625 115.804688 180.484375 118.96875 180.484375 122.800781 C 180.484375 126.796875 183.65625 129.800781 187.496094 129.800781 Z M 138.707031 191.761719 L 138.707031 182.4375 C 138.707031 178.609375 141.878906 175.441406 145.726562 175.441406 C 149.566406 175.441406 152.574219 178.609375 152.574219 182.4375 L 152.574219 194.097656 L 159.59375 194.097656 L 159.59375 182.4375 C 159.59375 174.773438 153.242188 168.609375 145.726562 168.609375 C 138.039062 168.609375 131.6875 174.773438 131.6875 182.4375 L 131.6875 195.097656 C 131.6875 200.929688 136.367188 205.59375 142.214844 205.59375 L 152.574219 205.59375 L 152.574219 232.742188 C 152.574219 240.242188 158.921875 246.570312 166.613281 246.570312 C 174.296875 246.570312 180.484375 240.242188 180.484375 232.742188 L 180.484375 210.089844 L 173.628906 210.089844 L 173.628906 232.742188 C 173.628906 236.40625 170.457031 239.574219 166.613281 239.574219 C 162.769531 239.574219 159.59375 236.40625 159.59375 232.742188 L 159.59375 205.59375 L 194.515625 205.59375 L 194.515625 232.742188 C 194.515625 240.242188 200.863281 246.570312 208.550781 246.570312 C 216.066406 246.570312 222.421875 240.242188 222.421875 232.742188 L 222.421875 210.089844 L 215.398438 210.089844 L 215.398438 232.742188 C 215.398438 236.40625 212.390625 239.574219 208.550781 239.574219 C 204.710938 239.574219 201.53125 236.40625 201.53125 232.742188 L 201.53125 205.59375 L 232.945312 205.59375 C 238.628906 205.59375 243.304688 200.929688 243.304688 195.097656 L 243.304688 182.4375 C 243.304688 174.773438 237.121094 168.609375 229.433594 168.609375 C 221.753906 168.609375 215.398438 174.773438 215.398438 182.4375 L 215.398438 198.59375 L 180.484375 198.59375 L 180.484375 191.433594 L 180.484375 191.761719 L 180.484375 157.285156 C 180.484375 153.449219 183.65625 150.289062 187.496094 150.289062 C 191.507812 150.289062 194.515625 153.449219 194.515625 157.285156 L 194.515625 191.761719 L 194.515625 191.433594 L 194.515625 194.097656 L 201.53125 194.097656 L 201.53125 191.433594 L 201.53125 191.761719 L 201.53125 157.285156 C 201.53125 149.621094 195.183594 143.292969 187.496094 143.292969 C 179.808594 143.292969 173.628906 149.621094 173.628906 157.285156 L 173.628906 191.761719 L 173.628906 191.433594 L 173.628906 198.59375 L 142.214844 198.59375 C 140.210938 198.59375 138.707031 196.929688 138.707031 195.097656 Z M 222.417969 198.59375 L 222.417969 182.4375 C 222.417969 178.609375 225.59375 175.441406 229.433594 175.441406 C 233.28125 175.441406 236.453125 178.609375 236.453125 182.4375 L 236.453125 195.097656 C 236.453125 196.929688 234.78125 198.59375 232.945312 198.59375 Z M 145.554688 155.117188 C 149.566406 155.117188 152.574219 151.953125 152.574219 148.121094 C 152.574219 144.289062 149.566406 141.121094 145.554688 141.121094 C 141.714844 141.121094 138.539062 144.289062 138.539062 148.121094 C 138.539062 151.953125 141.714844 155.117188 145.554688 155.117188 Z M 145.554688 155.117188 " fill-opacity="1" fill-rule="evenodd"/></g></svg>